<svg width="17" height="17" viewBox="0 0 17 17" fill="none" xmlns="http://www.w3.org/2000/svg" aria-label="Oidc logo">
  <title>Oidc logo</title>
  <path d="M8.09781 14.5982V14.8285C5.34065 14.4822 3.25138 12.9714 3.25138 11.15C3.25138 9.78261 4.42958 8.59019 6.19001 7.93224L6.12124 6.2851C3.02102 7.06761 0.833496 8.9497 0.833496 11.15C0.833496 13.8035 3.99424 15.9893 8.10135 16.3572L8.10198 14.5982H8.09781Z" fill="#CCCCCC"/>
  <path d="M10.5299 15.2143H10.5264V1.5L8.09781 2.74595V7.73439H8.10198L8.10135 16.3572L10.5299 15.2143Z" fill="#F7931E"/>
  <path d="M16.8335 10.1786L16.5049 6.69637L15.2549 7.40354C14.367 6.8642 13.2335 6.19814 11.7552 6.18983L11.7553 7.71693C11.8771 7.7506 11.9961 7.78733 12.1136 7.82563C12.6056 7.98601 13.0589 8.1857 13.4585 8.42139L12.1442 9.16066L16.8335 10.1786Z" fill="#CCCCCC"/>
</svg>