<svg xmlns="http://www.w3.org/2000/svg" width="17" height="17" viewBox="0 0 17 17" fill="currentColor">
  <path fill-rule="evenodd" clip-rule="evenodd" d="M9.30164 0.613351L8.97324 4.66594C8.81782 4.64693 8.66099 4.63672 8.50058 4.63672C8.30097 4.63672 8.10445 4.65192 7.91292 4.68115L7.72637 2.71593C7.72067 2.65462 7.76915 2.60091 7.83117 2.60186H8.16695L8.00512 0.613589C7.99965 0.552754 8.04789 0.5 8.10944 0.5H9.19732C9.25816 0.5 9.3064 0.552279 9.30164 0.613351ZM6.55603 0.814626C6.53987 0.755693 6.47666 0.7229 6.41916 0.744049L5.39686 1.11642C5.33935 1.13733 5.31202 1.20316 5.33745 1.25876L6.16917 3.07166L5.85335 3.18573C5.79537 3.20664 5.76757 3.27341 5.79442 3.3295L6.64182 5.11246C6.95315 4.94127 7.28683 4.81434 7.63322 4.73533L6.55603 0.814626ZM4.0452 1.94315L6.39801 5.25836C6.1002 5.45208 5.83082 5.68619 5.59647 5.9532L4.18921 4.56685C4.14477 4.5236 4.14834 4.45136 4.19562 4.41191L4.45298 4.19662L3.05166 2.77747C3.00889 2.73423 3.01221 2.66294 3.05903 2.62349L3.89217 1.92366C3.90327 1.91436 3.91618 1.90745 3.93008 1.90338C3.94398 1.8993 3.95857 1.89814 3.97294 1.89997C3.98731 1.9018 4.00115 1.90658 4.01358 1.91401C4.02602 1.92144 4.03678 1.93136 4.0452 1.94315ZM2.07142 3.86227C2.02128 3.82757 1.95166 3.84326 1.92076 3.89578L1.37706 4.83823C1.36983 4.85077 1.36527 4.86467 1.36368 4.87905C1.36208 4.89344 1.36348 4.908 1.36779 4.92182C1.3721 4.93563 1.37922 4.94841 1.38871 4.95934C1.3982 4.97027 1.40985 4.97912 1.42292 4.98532L3.22513 5.83961L3.05665 6.13C3.04928 6.14266 3.04466 6.15672 3.04307 6.17128C3.04148 6.18584 3.04296 6.20057 3.04741 6.21453C3.05187 6.22848 3.0592 6.24134 3.06894 6.25228C3.07868 6.26322 3.0906 6.272 3.10394 6.27805L4.89949 7.09907C5.02948 6.76519 5.20343 6.45389 5.41587 6.17277L2.07142 3.86227ZM0.743768 6.42395C0.746243 6.40969 0.751649 6.39609 0.759646 6.38402C0.767642 6.37196 0.778055 6.36168 0.790227 6.35384C0.802398 6.346 0.816063 6.34077 0.830358 6.33848C0.844654 6.33619 0.859268 6.3369 0.873278 6.34054L4.80587 7.36783C4.70392 7.70004 4.64713 8.0515 4.63929 8.41556L2.67026 8.25753C2.65569 8.25636 2.64152 8.25215 2.62866 8.24519C2.6158 8.23823 2.60454 8.22866 2.59559 8.2171C2.58665 8.20553 2.58021 8.19223 2.5767 8.17804C2.57319 8.16384 2.57268 8.14907 2.57521 8.13467L2.63414 7.80436L0.648715 7.6183C0.587881 7.61236 0.544394 7.5558 0.555088 7.49544L0.743768 6.42395ZM0.595248 9.07974C0.534414 9.08568 0.490927 9.14224 0.50162 9.2026L0.690776 10.2743C0.70147 10.3347 0.761353 10.3732 0.820286 10.3577L2.74987 9.85347L2.80737 10.1838C2.80991 10.1982 2.81543 10.2119 2.82357 10.224C2.83171 10.2361 2.84229 10.2464 2.85463 10.2542C2.86698 10.262 2.88082 10.2672 2.89527 10.2693C2.90972 10.2715 2.92446 10.2706 2.93855 10.2667L4.84175 9.74131C4.72722 9.40498 4.65996 9.05437 4.6419 8.69953L0.595248 9.07974ZM1.22474 11.8959C1.21746 11.8834 1.21286 11.8695 1.21124 11.855C1.20962 11.8406 1.21101 11.826 1.21532 11.8122C1.21963 11.7983 1.22677 11.7855 1.23629 11.7746C1.2458 11.7636 1.25749 11.7548 1.2706 11.7486L4.9425 10.0075C5.08223 10.3368 5.26711 10.6424 5.48811 10.9174L3.87886 12.062C3.82872 12.0982 3.7579 12.0825 3.72725 12.029L3.56019 11.7381L1.91958 12.8721C1.90767 12.8804 1.89418 12.8862 1.87995 12.889C1.86571 12.8918 1.85105 12.8916 1.83689 12.8884C1.82273 12.8853 1.80938 12.8792 1.79767 12.8707C1.78597 12.8621 1.77618 12.8512 1.76892 12.8386L1.22474 11.8959ZM5.6737 11.1324L2.81759 14.0261C2.77482 14.0693 2.77814 14.1406 2.82496 14.1801L3.65857 14.8794C3.70539 14.9189 3.77596 14.9096 3.81161 14.8599L4.96532 13.2333L5.2222 13.4498C5.26949 13.4897 5.34102 13.48 5.37618 13.4294L6.49639 11.8042C6.19245 11.6191 5.91609 11.3924 5.67441 11.1336L5.6737 11.1324ZM5.10956 15.7788C5.05205 15.7579 5.02473 15.6921 5.05015 15.6365L6.74471 11.9408C7.06093 12.1028 7.3981 12.22 7.74657 12.2892L7.24968 14.2C7.234 14.2599 7.17031 14.2936 7.11233 14.2723L6.79699 14.1568L6.26873 16.0802C6.25258 16.1391 6.18936 16.1719 6.13186 16.1507L5.10956 15.7788ZM8.02698 12.3336L7.69857 16.3865C7.69382 16.4473 7.74182 16.5001 7.80289 16.5001H8.89078C8.95232 16.5001 9.00033 16.4473 8.9951 16.3865L8.83327 14.3982H9.16904C9.23083 14.3992 9.27954 14.3454 9.27384 14.2841L9.0873 12.3189C8.89577 12.3481 8.69948 12.3631 8.49963 12.3631C8.33947 12.3631 8.18215 12.3527 8.02698 12.3336ZM11.9503 1.36261C11.9757 1.307 11.9484 1.24118 11.8909 1.22027L10.8686 0.84837C10.8111 0.827458 10.7479 0.860014 10.7317 0.918947L10.2035 2.84235L9.88812 2.72686C9.83014 2.70547 9.76622 2.73898 9.75077 2.79886L9.25388 4.70967C9.60772 4.77977 9.94373 4.89882 10.2557 5.05804L11.9503 1.36261ZM14.1829 2.97328L11.3268 5.86694L11.3263 5.86599C11.0846 5.60721 10.8085 5.38074 10.5043 5.19539L11.6245 3.57022C11.6597 3.5196 11.7312 3.50986 11.7785 3.54978L12.0354 3.76603L13.1891 2.13943C13.2247 2.08976 13.2953 2.0805 13.3421 2.11994L14.1757 2.8193C14.2225 2.85875 14.2256 2.93004 14.1829 2.97328ZM15.7299 5.25052C15.743 5.24435 15.7546 5.23551 15.7641 5.22459C15.7737 5.21366 15.7808 5.20088 15.7851 5.18705C15.7894 5.17322 15.7908 5.15865 15.7892 5.14425C15.7876 5.12986 15.783 5.11595 15.7757 5.10343L15.2315 4.16097C15.2009 4.10774 15.1317 4.0923 15.0809 4.12723L13.4403 5.26121L13.2732 4.97035C13.2659 4.95766 13.2561 4.94663 13.2443 4.93798C13.2325 4.92933 13.219 4.92325 13.2047 4.92014C13.1905 4.91703 13.1757 4.91695 13.1613 4.91991C13.147 4.92287 13.1335 4.9288 13.1216 4.93732L11.5123 6.082C11.7336 6.35694 11.9182 6.6623 12.0582 6.9919L15.7299 5.25052ZM16.3092 6.72551L16.4984 7.79723C16.5091 7.85759 16.4663 7.91462 16.4052 7.92057L12.3583 8.30078C12.3398 7.93767 12.2706 7.58883 12.1587 7.259L14.0619 6.73359C14.1213 6.71695 14.1822 6.75545 14.1931 6.81652L14.2506 7.14683L16.1802 6.64257C16.2391 6.62689 16.2985 6.66491 16.3092 6.72551ZM16.1265 10.6586C16.1859 10.6743 16.2453 10.6358 16.256 10.5752L16.4447 9.50368C16.4553 9.44332 16.4121 9.38676 16.351 9.38082L14.3656 9.19475L14.4245 8.86444C14.4271 8.85004 14.4266 8.83526 14.4231 8.82106C14.4196 8.80686 14.4132 8.79354 14.4042 8.78198C14.3953 8.77041 14.384 8.76084 14.3711 8.75388C14.3582 8.74693 14.3441 8.74274 14.3295 8.74159L12.3607 8.58356C12.3529 8.94762 12.2953 9.29907 12.1941 9.63128L16.1265 10.6586ZM15.079 13.1033C15.0483 13.1561 14.9787 13.1715 14.9286 13.1368L11.5841 10.8261C11.7966 10.545 11.9705 10.2337 12.1005 9.89981L13.896 10.7211C13.9526 10.747 13.9745 10.8156 13.9433 10.8691L13.7746 11.1595L15.5771 12.0138C15.6322 12.0402 15.6536 12.1079 15.6229 12.1609L15.079 13.1033ZM10.6017 11.7408L12.9545 15.0564C12.963 15.0682 12.9737 15.0782 12.9862 15.0856C12.9986 15.093 13.0124 15.0978 13.0268 15.0996C13.0412 15.1014 13.0558 15.1003 13.0697 15.0962C13.0836 15.0921 13.0965 15.0852 13.1076 15.0759L13.9407 14.3761C13.9875 14.3367 13.9909 14.2654 13.9481 14.2221L12.5468 12.8032L12.8041 12.5879C12.8514 12.5485 12.8547 12.4762 12.8105 12.433L11.4035 11.0466C11.1692 11.3137 10.8996 11.5471 10.6017 11.7408ZM10.5813 16.2553C10.5238 16.2762 10.4603 16.2437 10.4444 16.1847L9.36723 12.2643C9.71367 12.1851 10.0474 12.0582 10.3589 11.8871L11.206 13.6701C11.2329 13.7262 11.2051 13.793 11.1471 13.8139L10.8313 13.9279L11.663 15.7408C11.6884 15.7964 11.6611 15.8623 11.6036 15.8832L10.5813 16.2553Z" fill="#1F1F1F"/>
</svg>