<svg
  width="17"
  height="17"
  viewBox="0 0 17 17"
  fill="none"
  xmlns="http://www.w3.org/2000/svg"
  aria-label="Samlp logo"
>
  <g clip-path="url(#clip0_3877_18866)">
    <path
      fill-rule="evenodd"
      clip-rule="evenodd"
      d="M5.00171 9.67038C5.85437 3.52754 8.07452 0.5 8.07452 0.5C8.07452 0.5 13.7196 4.78712 16.5 11.1505C16.3492 10.9619 16.1136 10.6033 15.8103 10.1415C13.5943 6.76789 7.76432 -2.10757 5.00171 9.67038ZM10.0479 11.4363C4.25241 13.7698 0.5 13.3839 0.5 13.3839C0.5 13.3839 1.42266 6.3938 5.59112 0.824621C5.50182 1.04831 5.30632 1.43004 5.05456 1.92146C3.21571 5.51094 -1.62182 14.954 10.0479 11.4363ZM15.5345 13.4451C15.5345 13.4451 14.0043 10.0297 9.06763 6.21621C17.9748 14.4745 7.31237 15.0474 3.25521 15.2654C2.69876 15.2953 2.26661 15.3185 2.02615 15.3539C8.97498 16.1481 15.5345 13.4451 15.5345 13.4451Z"
      fill="#ED0000"
    />
  </g>
  <defs>
    <clipPath id="clip0_3877_18866">
      <rect width="16" height="16" fill="white" transform="translate(0.5 0.5)" />
    </clipPath>
  </defs>
</svg>